<?xml version="1.0" encoding="utf-8"?>
<!-- Generator: Adobe Illustrator 23.0.1, SVG Export Plug-In . SVG Version: 6.00 Build 0)  -->
<svg version="1.1" id="Layer_1" xmlns="http://www.w3.org/2000/svg" xmlns:xlink="http://www.w3.org/1999/xlink" x="0px" y="0px"
	 viewBox="0 0 883 684" style="enable-background:new 0 0 883 684;" xml:space="preserve">
<style type="text/css">
	.st0{fill:none;stroke:#302C37;stroke-width:4;}
	.st1{fill:none;stroke:#302C37;stroke-width:4;stroke-linecap:round;stroke-linejoin:round;}
	.st2{fill:#302C37;}
	.st3{clip-path:url(#SVGID_2_);fill:#FFFFFF;}
	.st4{clip-path:url(#SVGID_2_);fill:#302C37;}
	.st5{fill:#719AEB;}
	.st6{clip-path:url(#SVGID_4_);fill:#FFFFFF;}
	.st7{clip-path:url(#SVGID_4_);fill:#719AEB;}
	.st8{fill:none;stroke:#9782EA;stroke-width:6;}
	.st9{fill:#FFE974;}
	.st10{fill:none;stroke:#FFE974;stroke-width:0.5;}
	.st11{fill:none;stroke:#EBA471;stroke-width:6;}
	.st12{fill:none;stroke:#719AEB;stroke-width:6;}
	.st13{fill:none;stroke:#EB7187;stroke-width:6;}
	.st14{fill:none;stroke:#9782EA;stroke-width:6;stroke-linecap:round;stroke-linejoin:round;}
	.st15{fill:none;stroke:#9682EA;stroke-width:4;stroke-linecap:round;stroke-linejoin:round;}
	.st16{fill:none;stroke:#FFE974;stroke-width:6;}
</style>
<g>
	<path class="st0" d="M746.3,518h196.6c8.5,0,15.3,6.9,15.3,15.3v132.6c0,8.5-6.9,15.3-15.3,15.3H746.3c-8.5,0-15.3-6.9-15.3-15.3
		V533.3C731,524.9,737.9,518,746.3,518z"/>
	<line class="st1" x1="877" y1="539.2" x2="935.3" y2="539.2"/>
	<line class="st1" x1="751" y1="611.2" x2="809.3" y2="611.2"/>
	<line class="st1" x1="877" y1="551.2" x2="931" y2="551.2"/>
	<line class="st1" x1="755" y1="623.2" x2="809" y2="623.2"/>
	<line class="st1" x1="877" y1="563.2" x2="915" y2="563.2"/>
	<line class="st1" x1="771" y1="635.2" x2="809" y2="635.2"/>
	<path class="st2" d="M756,536v2h97.1c1.1,0,2.1,0.4,2.8,1.2c0.7,0.7,1.2,1.7,1.2,2.8v44.1c0,1.1-0.4,2.1-1.2,2.8
		c-0.7,0.7-1.7,1.2-2.8,1.2H756c-1.1,0-2.1-0.4-2.8-1.2c-0.7-0.7-1.2-1.7-1.2-2.8V542c0-1.1,0.4-2.1,1.2-2.8
		c0.7-0.7,1.7-1.2,2.8-1.2V536v-2c-4.4,0-8,3.6-8,8v44.1c0,4.4,3.6,8,8,8h97.1c4.4,0,8-3.6,8-8V542c0-4.4-3.6-8-8-8H756V536"/>
	<g>
		<defs>
			<polyline id="SVGID_1_" points="747.3,534.3 861.7,534.3 861.7,593.4 747.3,593.4 747.3,534.3 			"/>
		</defs>
		<clipPath id="SVGID_2_">
			<use xlink:href="#SVGID_1_"  style="overflow:visible;"/>
		</clipPath>
		<path class="st3" d="M860.5,589.3c-0.6,1.3-1.4,2.4-2.5,3.2l1.8,0.9l1.8-3.6L860.5,589.3"/>
		<path class="st4" d="M860.5,589.3c-0.6,1.3-1.4,2.4-2.5,3.2l0,0C859.1,591.7,860,590.6,860.5,589.3L860.5,589.3"/>
		<path class="st3" d="M859.9,534.3L859.9,534.3l-2.2,1.1c0.4,0.2,0.7,0.5,1,0.8c0.7,0.7,1.3,1.4,1.7,2.3l1.3-0.6L859.9,534.3"/>
		<path class="st4" d="M858.7,536.2c0.7,0.7,1.3,1.4,1.7,2.3l0,0C860,537.7,859.4,536.9,858.7,536.2"/>
		<path class="st3" d="M749.1,534.3L749.1,534.3l-1.8,3.6v0l1.4,0.7c0.6-1.3,1.5-2.4,2.6-3.2L749.1,534.3"/>
		<path class="st3" d="M748.6,589.3l-1.2,0.6l1.8,3.6l1.9-0.9C750,591.7,749.2,590.5,748.6,589.3"/>
		<path class="st4" d="M748.6,589.3L748.6,589.3c0.5,1.3,1.4,2.4,2.5,3.2l0,0C750,591.7,749.2,590.5,748.6,589.3"/>
		<path class="st4" d="M756.5,538H756c-1.1,0-2.1,0.4-2.8,1.2c-0.3,0.3-0.6,0.8-0.8,1.2l47.6,23.5l4.5-2.2L756.5,538"/>
		<path class="st4" d="M756.5,538H756c-1.1,0-2.1,0.4-2.8,1.2c-0.3,0.3-0.6,0.8-0.8,1.2l0,0c0.2-0.5,0.5-0.9,0.8-1.2
			c0.7-0.7,1.7-1.2,2.8-1.2l0,0L756.5,538L756.5,538"/>
		<path class="st4" d="M809,563.9l-4.5,2.2l48.7,24c1.1,0,2.1-0.5,2.8-1.2c0.4-0.4,0.7-0.9,0.9-1.4L809,563.9"/>
		<path class="st4" d="M853.2,538h-0.7l-48,23.7l-4.5,2.2l-47.8,23.6c0.2,0.6,0.5,1.1,1,1.5c0.1,0.1,0.1,0.1,0.2,0.2
			c0.7,0.6,1.5,0.9,2.4,1l48.7-24l4.5-2.2l47.8-23.6c-0.2-0.4-0.5-0.8-0.8-1.1C855.3,538.4,854.3,538,853.2,538"/>
		<path class="st4" d="M752.2,587.5L752.2,587.5c0.2,0.6,0.5,1.1,1,1.5c0.1,0.1,0.1,0.1,0.2,0.2c-0.1-0.1-0.1-0.1-0.2-0.2
			C752.8,588.6,752.4,588.1,752.2,587.5 M853.2,538h-0.7l0,0L853.2,538c1.1,0,2.1,0.4,2.8,1.2c0,0,0,0,0,0
			C855.3,538.4,854.3,538,853.2,538"/>
		<path class="st4" d="M751.4,535.5c-1.1,0.8-2.1,1.9-2.6,3.2l0,0C749.4,537.3,750.3,536.3,751.4,535.5L751.4,535.5"/>
		<path class="st4" d="M751.4,535.5c-1.1,0.8-2.1,1.9-2.6,3.2l3.6,1.8c0.2-0.5,0.5-0.9,0.8-1.2c0.7-0.7,1.7-1.2,2.8-1.2l0,0h0.5
			L751.4,535.5"/>
		<path class="st4" d="M856.9,587.6c-0.2,0.5-0.5,1-0.9,1.4c-0.7,0.7-1.7,1.2-2.8,1.2l0,0c1.1,0,2.1-0.5,2.8-1.2
			C856.4,588.6,856.7,588.1,856.9,587.6L856.9,587.6"/>
		<path class="st4" d="M856.9,587.6c-0.2,0.5-0.5,1-0.9,1.4c-0.7,0.7-1.7,1.2-2.8,1.2l4.8,2.4c1.1-0.8,2-1.9,2.5-3.2L856.9,587.6"/>
		<path class="st4" d="M856,539.2c0.3,0.3,0.6,0.7,0.8,1.1l0,0C856.6,539.9,856.3,539.5,856,539.2C856,539.2,856,539.2,856,539.2
			 M857.7,535.4L857.7,535.4c0.4,0.2,0.7,0.5,1,0.8C858.4,535.9,858.1,535.7,857.7,535.4"/>
		<path class="st4" d="M857.7,535.4l-5.2,2.6h0.7c1.1,0,2.1,0.4,2.8,1.2c0,0,0,0,0,0c0,0,0,0,0,0c0.3,0.3,0.6,0.7,0.8,1.1l3.6-1.8
			c-0.4-0.9-1-1.6-1.7-2.3C858.4,535.9,858.1,535.7,857.7,535.4"/>
		<path class="st4" d="M753.4,589.2c0.7,0.6,1.5,0.9,2.4,1l0,0C754.9,590.1,754,589.8,753.4,589.2"/>
		<path class="st4" d="M752.2,587.5l-3.6,1.8c0.5,1.3,1.4,2.4,2.5,3.2l4.7-2.3c-0.9-0.1-1.8-0.4-2.4-1c-0.1-0.1-0.1-0.1-0.2-0.2
			C752.8,588.6,752.4,588.1,752.2,587.5"/>
	</g>
	<path class="st5" d="M833,608v2h97.1c1.1,0,2.1,0.4,2.8,1.2c0.7,0.7,1.2,1.7,1.2,2.8v44.1c0,1.1-0.4,2.1-1.2,2.8
		c-0.7,0.7-1.7,1.2-2.8,1.2H833c-1.1,0-2.1-0.4-2.8-1.2c-0.7-0.7-1.2-1.7-1.2-2.8V614c0-1.1,0.4-2.1,1.2-2.8
		c0.7-0.7,1.7-1.2,2.8-1.2V608v-2c-4.4,0-8,3.6-8,8v44.1c0,4.4,3.6,8,8,8h97.1c4.4,0,8-3.6,8-8V614c0-4.4-3.6-8-8-8H833V608"/>
	<g>
		<defs>
			<polyline id="SVGID_3_" points="824.3,606.3 938.7,606.3 938.7,665.4 824.3,665.4 824.3,606.3 			"/>
		</defs>
		<clipPath id="SVGID_4_">
			<use xlink:href="#SVGID_3_"  style="overflow:visible;"/>
		</clipPath>
		<path class="st6" d="M937.5,661.3c-0.6,1.3-1.4,2.4-2.5,3.2l1.8,0.9l1.8-3.6L937.5,661.3"/>
		<path class="st7" d="M937.5,661.3c-0.6,1.3-1.4,2.4-2.5,3.2l0,0C936.1,663.7,937,662.6,937.5,661.3L937.5,661.3"/>
		<path class="st6" d="M936.9,606.3L936.9,606.3l-2.2,1.1c0.5,0.3,0.9,0.7,1.3,1.2c0.5,0.6,1,1.3,1.3,2l1.3-0.6L936.9,606.3"/>
		<path class="st7" d="M936,608.6c0.5,0.6,1,1.3,1.3,2l0,0C937,609.8,936.6,609.2,936,608.6"/>
		<path class="st6" d="M826.1,606.3L826.1,606.3l-1.8,3.6v0l1.4,0.7c0.6-1.3,1.5-2.4,2.6-3.2L826.1,606.3"/>
		<path class="st6" d="M825.6,661.3l-1.2,0.6l1.8,3.6l1.9-0.9C827,663.7,826.2,662.5,825.6,661.3"/>
		<path class="st7" d="M825.6,661.3L825.6,661.3c0.5,1.3,1.4,2.4,2.5,3.2l0,0C827,663.7,826.2,662.5,825.6,661.3"/>
		<path class="st7" d="M833.5,610H833c-1.1,0-2.1,0.4-2.8,1.2c-0.3,0.3-0.6,0.8-0.8,1.2l47.6,23.5l4.5-2.2L833.5,610"/>
		<path class="st7" d="M833.5,610H833c-1.1,0-2.1,0.4-2.8,1.2c-0.3,0.3-0.6,0.8-0.8,1.2l0,0c0.2-0.5,0.5-0.9,0.8-1.2
			c0.7-0.7,1.7-1.2,2.8-1.2l0,0L833.5,610L833.5,610"/>
		<path class="st7" d="M886,635.9l-4.5,2.2l48.7,24c1.1,0,2.1-0.5,2.8-1.2c0.4-0.4,0.7-0.9,0.9-1.4L886,635.9"/>
		<path class="st7" d="M930.2,610h-0.7l-48,23.7l-4.5,2.2l-47.8,23.6c0,0.1,0.1,0.1,0.1,0.2c0.1,0.3,0.3,0.6,0.5,0.9c0,0,0,0,0,0
			c0,0,0,0,0,0c0.1,0.1,0.2,0.3,0.4,0.4c0.1,0.1,0.1,0.1,0.2,0.2c0.7,0.6,1.5,0.9,2.4,1l48.7-24l4.5-2.2l47.8-23.6
			c-0.2-0.4-0.5-0.8-0.8-1.1C932.3,610.4,931.3,610,930.2,610"/>
		<path class="st7" d="M829.8,660.6c0.1,0.1,0.2,0.3,0.4,0.4c0.1,0.1,0.1,0.1,0.2,0.2c-0.1-0.1-0.1-0.1-0.2-0.2
			C830,660.9,829.9,660.7,829.8,660.6 M829.8,660.6C829.8,660.6,829.8,660.6,829.8,660.6C829.8,660.6,829.8,660.6,829.8,660.6
			 M829.2,659.5L829.2,659.5c0,0.1,0.1,0.1,0.1,0.2C829.3,659.6,829.2,659.6,829.2,659.5 M930.2,610h-0.7l0,0L930.2,610
			c1.1,0,2.1,0.4,2.8,1.2c0,0,0,0,0,0C932.3,610.4,931.3,610,930.2,610"/>
		<path class="st7" d="M828.4,607.5c-1.1,0.8-2.1,1.9-2.6,3.2l0,0C826.4,609.3,827.3,608.3,828.4,607.5L828.4,607.5"/>
		<path class="st7" d="M828.4,607.5c-1.1,0.8-2.1,1.9-2.6,3.2l3.6,1.8c0.2-0.5,0.5-0.9,0.8-1.2c0.7-0.7,1.7-1.2,2.8-1.2l0,0h0.5
			L828.4,607.5"/>
		<path class="st7" d="M933.9,659.6c-0.2,0.5-0.5,1-0.9,1.4c-0.7,0.7-1.7,1.2-2.8,1.2l0,0c1.1,0,2.1-0.5,2.8-1.2
			C933.4,660.6,933.7,660.1,933.9,659.6L933.9,659.6"/>
		<path class="st7" d="M933.9,659.6c-0.2,0.5-0.5,1-0.9,1.4c-0.7,0.7-1.7,1.2-2.8,1.2l4.8,2.4c1.1-0.8,2-1.9,2.5-3.2L933.9,659.6"/>
		<path class="st7" d="M933,611.2c0.3,0.3,0.6,0.7,0.8,1.1l0,0C933.6,611.9,933.3,611.5,933,611.2C933,611.2,933,611.2,933,611.2
			 M934.7,607.4L934.7,607.4c0.5,0.3,0.9,0.7,1.3,1.2C935.6,608.1,935.2,607.7,934.7,607.4"/>
		<path class="st7" d="M934.7,607.4l-5.2,2.6h0.7c1.1,0,2.1,0.4,2.8,1.2c0,0,0,0,0,0c0,0,0,0,0,0c0.3,0.3,0.6,0.7,0.8,1.1l3.6-1.8
			c-0.4-0.7-0.8-1.4-1.3-2C935.6,608.1,935.2,607.7,934.7,607.4"/>
		<path class="st7" d="M830.4,661.2c0.7,0.6,1.5,0.9,2.4,1l0,0C831.9,662.1,831,661.8,830.4,661.2 M829.8,660.6
			C829.8,660.6,829.8,660.6,829.8,660.6C829.8,660.6,829.8,660.6,829.8,660.6 M829.3,659.7c0.1,0.3,0.3,0.6,0.5,0.9
			C829.6,660.3,829.4,660,829.3,659.7"/>
		<path class="st7" d="M829.2,659.5l-3.6,1.8c0.5,1.3,1.4,2.4,2.5,3.2l4.7-2.3c-0.9-0.1-1.8-0.4-2.4-1c-0.1-0.1-0.1-0.1-0.2-0.2
			c-0.1-0.1-0.3-0.3-0.4-0.4c0,0,0,0,0,0c0,0,0,0,0,0c-0.2-0.3-0.4-0.6-0.5-0.9C829.3,659.6,829.2,659.6,829.2,659.5"/>
	</g>
	<path class="st0" d="M846.3,248h58.5c8.5,0,15.3,6.9,15.3,15.3v77.5c0,8.5-6.9,15.3-15.3,15.3h-58.5c-8.5,0-15.3-6.9-15.3-15.3
		v-77.5C831,254.9,837.9,248,846.3,248z"/>
	<path class="st0" d="M875.8,298L875.8,298c8.2,0,14.9-6.6,14.9-14.8c0-8.2-6.6-14.8-14.8-14.8h0c-8.2,0-14.8,6.6-14.8,14.8
		C861,291.4,867.6,298,875.8,298z"/>
	<line class="st1" x1="846" y1="315.2" x2="904.3" y2="315.2"/>
	<line class="st1" x1="849" y1="326.2" x2="903" y2="326.2"/>
	<line class="st1" x1="857" y1="337.2" x2="895" y2="337.2"/>
	<path class="st0" d="M846.3,123h58.5c8.5,0,15.3,6.9,15.3,15.3v77.5c0,8.5-6.9,15.3-15.3,15.3h-58.5c-8.5,0-15.3-6.9-15.3-15.3
		v-77.5C831,129.9,837.9,123,846.3,123z"/>
	<path class="st0" d="M875.8,173L875.8,173c8.2,0,14.9-6.6,14.9-14.8c0-8.2-6.6-14.8-14.8-14.8h0c-8.2,0-14.8,6.6-14.8,14.8
		C861,166.4,867.6,173,875.8,173z"/>
	<line class="st1" x1="846" y1="190.2" x2="904.3" y2="190.2"/>
	<line class="st1" x1="849" y1="201.2" x2="903" y2="201.2"/>
	<line class="st1" x1="857" y1="212.2" x2="895" y2="212.2"/>
	<path class="st0" d="M740.3,156h58.5c8.5,0,15.3,6.9,15.3,15.3v77.5c0,8.5-6.9,15.3-15.3,15.3h-58.5c-8.5,0-15.3-6.9-15.3-15.3
		v-77.5C725,162.9,731.9,156,740.3,156z"/>
	<path class="st0" d="M769.8,206L769.8,206c8.2,0,14.9-6.6,14.9-14.8c0-8.2-6.6-14.8-14.8-14.8h0c-8.2,0-14.8,6.6-14.8,14.8
		C755,199.4,761.6,206,769.8,206z"/>
	<line class="st1" x1="740" y1="223.2" x2="798.3" y2="223.2"/>
	<line class="st1" x1="743" y1="234.2" x2="797" y2="234.2"/>
	<line class="st1" x1="751" y1="245.2" x2="789" y2="245.2"/>
	<path class="st1" d="M23.3,466h92.8c11.8,0,21.3,9.5,21.3,21.3v13.9c0,11.8-9.5,21.3-21.3,21.3H23.3c-11.8,0-21.3-9.5-21.3-21.3
		v-13.9C2,475.5,11.5,466,23.3,466z"/>
	<line class="st1" x1="27" y1="488.7" x2="84.7" y2="488.7"/>
	<path class="st1" d="M107.6,502.2c4.8,0,8.6-3.9,8.6-8.6s-3.9-8.6-8.6-8.6c-4.8,0-8.6,3.9-8.6,8.6S102.9,502.2,107.6,502.2z"/>
	<line class="st1" x1="48" y1="499.3" x2="84" y2="499.3"/>
	<path class="st1" d="M23.3,536h92.8c11.8,0,21.3,9.5,21.3,21.3v13.9c0,11.8-9.5,21.3-21.3,21.3H23.3c-11.8,0-21.3-9.5-21.3-21.3
		v-13.9C2,545.5,11.5,536,23.3,536z"/>
	<line class="st1" x1="55" y1="558.7" x2="112.7" y2="558.7"/>
	<ellipse class="st1" cx="32.6" cy="563.6" rx="8.6" ry="8.6"/>
	<line class="st1" x1="55" y1="569.3" x2="91" y2="569.3"/>
	<path class="st1" d="M23.3,396h92.8c11.8,0,21.3,9.5,21.3,21.3v13.9c0,11.8-9.5,21.3-21.3,21.3H23.3c-11.8,0-21.3-9.5-21.3-21.3
		v-13.9C2,405.5,11.5,396,23.3,396z"/>
	<line class="st1" x1="55" y1="418.7" x2="112.7" y2="418.7"/>
	<line class="st1" x1="55" y1="429.3" x2="91" y2="429.3"/>
	<path class="st1" d="M12.1,148L12.1,148c5.6,0,10.1,4.5,10.1,10.1v0c0,5.6-4.5,10.1-10.1,10.1c-5.6,0-10.1-4.5-10.1-10.1v0
		C2,152.5,6.5,148,12.1,148z"/>
	<line class="st1" x1="36.1" y1="151.9" x2="207.1" y2="151.9"/>
	<line class="st1" x1="36.1" y1="164.9" x2="146.7" y2="164.9"/>
	<path class="st1" d="M12.1,187L12.1,187c5.6,0,10.1,4.5,10.1,10.1v0c0,5.6-4.5,10.1-10.1,10.1c-5.6,0-10.1-4.5-10.1-10.1v0
		C2,191.5,6.5,187,12.1,187z"/>
	<line class="st1" x1="36.1" y1="189.9" x2="207.1" y2="189.9"/>
	<line class="st1" x1="36.1" y1="202.9" x2="146.7" y2="202.9"/>
	<path class="st1" d="M15.9,64h235.7c7.7,0,13.9,6.2,13.9,13.9c0,7.7-6.2,13.9-13.9,13.9H15.9C8.2,91.9,2,85.6,2,77.9
		C2,70.2,8.2,64,15.9,64z"/>
	<path class="st1" d="M12.1,110L12.1,110c5.6,0,10.1,4.5,10.1,10.1v0c0,5.6-4.5,10.1-10.1,10.1c-5.6,0-10.1-4.5-10.1-10.1v0
		C2,114.5,6.5,110,12.1,110z"/>
	<line class="st1" x1="36.1" y1="113.9" x2="207.1" y2="113.9"/>
	<line class="st1" x1="36.1" y1="125.9" x2="146.7" y2="125.9"/>
	<rect x="289.8" y="112.9" transform="matrix(0.9688 -0.2478 0.2478 0.9688 -21.526 78.6605)" class="st8" width="24" height="24"/>
	<path class="st9" d="M201.1,636l-9.7-5.5l0,0c-0.6-0.3-1-0.7-1.3-1l0,0c-0.3-0.4-0.4-0.8-0.4-1.3c0-0.6,0.1-1,0.4-1.4
		c0.3-0.4,0.7-0.6,1.2-0.6c0.2,0,0.4,0,0.6,0.1c0.2,0.1,0.6,0.2,1,0.4l0,0v0l12.3,6.9l0,0l0,0l0.1,0.1c1.2,0.6,1.8,1.4,1.8,2.4
		c0,1-0.6,1.7-1.8,2.4c-0.1,0.1-0.2,0.1-0.3,0.2l-12.3,6.8l0,0c-0.3,0.2-0.6,0.3-0.8,0.4l0,0L201.1,636z M201.1,636l-9.7,5.5
		L201.1,636z M166.6,641.6l-9.7-5.5l9.7-5.5l0,0c0.6-0.3,1-0.7,1.3-1c0.3-0.4,0.4-0.8,0.4-1.3c0-0.6-0.1-1-0.5-1.4
		c-0.3-0.4-0.7-0.6-1.3-0.6c-0.2,0-0.4,0-0.6,0.1c-0.2,0.1-0.5,0.2-1,0.4l0,0l-12.3,6.9l0,0l0,0l-0.1,0.1c-1.2,0.6-1.8,1.4-1.8,2.4
		c0,1,0.6,1.7,1.8,2.4l0,0l0,0c0.1,0.1,0.2,0.1,0.3,0.1l0,0l12.2,6.8l0,0c0.3,0.2,0.6,0.3,0.8,0.4l0,0c0.2,0.1,0.5,0.1,0.7,0.1
		c0.5,0,0.9-0.2,1.3-0.6c0.3-0.4,0.5-0.9,0.5-1.4c0-0.5-0.1-0.9-0.4-1.3C167.7,642.3,167.2,641.9,166.6,641.6z M173.1,649.6
		L173.1,649.6c0.4,0.4,0.9,0.6,1.4,0.6c0.4,0,0.8-0.2,1-0.5c0.3-0.3,0.5-0.9,0.8-1.6l9.1-23.4v0c0.2-0.4,0.3-0.8,0.4-1.1
		c0.1-0.3,0.1-0.5,0.1-0.8c0-0.6-0.2-1.1-0.6-1.5c-0.4-0.4-0.9-0.6-1.4-0.6c-0.4,0-0.8,0.2-1,0.5c-0.3,0.3-0.5,0.9-0.8,1.6
		l-9.1,23.4l0,0.1l0,0c-0.3,0.8-0.4,1.4-0.4,1.8C172.5,648.7,172.7,649.2,173.1,649.6z"/>
	<path class="st10" d="M201.1,636l-9.7-5.5l0,0c-0.6-0.3-1-0.7-1.3-1l0,0c-0.3-0.4-0.4-0.8-0.4-1.3c0-0.6,0.1-1,0.4-1.4
		c0.3-0.4,0.7-0.6,1.2-0.6c0.2,0,0.4,0,0.6,0.1c0.2,0.1,0.6,0.2,1,0.4l0,0v0l12.3,6.9l0,0l0,0l0.1,0.1c1.2,0.6,1.8,1.4,1.8,2.4
		c0,1-0.6,1.7-1.8,2.4c-0.1,0.1-0.2,0.1-0.3,0.2l-12.3,6.8l0,0c-0.3,0.2-0.6,0.3-0.8,0.4l0,0L201.1,636z M201.1,636l-9.7,5.5
		L201.1,636z M166.6,641.6l-9.7-5.5l9.7-5.5l0,0c0.6-0.3,1-0.7,1.3-1c0.3-0.4,0.4-0.8,0.4-1.3c0-0.6-0.1-1-0.5-1.4
		c-0.3-0.4-0.7-0.6-1.3-0.6c-0.2,0-0.4,0-0.6,0.1c-0.2,0.1-0.5,0.2-1,0.4l0,0l-12.3,6.9l0,0l0,0l-0.1,0.1c-1.2,0.6-1.8,1.4-1.8,2.4
		c0,1,0.6,1.7,1.8,2.4l0,0l0,0c0.1,0.1,0.2,0.1,0.3,0.1l0,0l12.2,6.8l0,0c0.3,0.2,0.6,0.3,0.8,0.4l0,0c0.2,0.1,0.5,0.1,0.7,0.1
		c0.5,0,0.9-0.2,1.3-0.6c0.3-0.4,0.5-0.9,0.5-1.4c0-0.5-0.1-0.9-0.4-1.3C167.7,642.3,167.2,641.9,166.6,641.6z M173.1,649.6
		L173.1,649.6c0.4,0.4,0.9,0.6,1.4,0.6c0.4,0,0.8-0.2,1-0.5c0.3-0.3,0.5-0.9,0.8-1.6l9.1-23.4v0c0.2-0.4,0.3-0.8,0.4-1.1
		c0.1-0.3,0.1-0.5,0.1-0.8c0-0.6-0.2-1.1-0.6-1.5c-0.4-0.4-0.9-0.6-1.4-0.6c-0.4,0-0.8,0.2-1,0.5c-0.3,0.3-0.5,0.9-0.8,1.6
		l-9.1,23.4l0,0.1l0,0c-0.3,0.8-0.4,1.4-0.4,1.8C172.5,648.7,172.7,649.2,173.1,649.6z"/>
	<polygon class="st11" points="708.7,93.6 687,87.5 703.1,71.8 	"/>
	<polygon class="st12" points="818.8,566.7 824.9,545 840.6,561.1 	"/>
	<polygon class="st13" points="123,536.5 117.7,514.6 139.3,520.9 	"/>
	<circle class="st13" cx="32.5" cy="423.5" r="8.5"/>
	<circle class="st11" cx="744.5" cy="366.5" r="8.5"/>
	<path class="st12" d="M498,99c0-8.3-6.7-15-15-15s-15,6.7-15,15"/>
	<line class="st14" x1="831" y1="472" x2="819" y2="484"/>
	<line class="st14" x1="819" y1="472" x2="831" y2="484"/>
	<line class="st14" x1="592.5" y1="136.5" x2="592.5" y2="153.5"/>
	<line class="st14" x1="584" y1="145" x2="601" y2="145"/>
	<line class="st15" x1="36.1" y1="151.9" x2="207.1" y2="151.9"/>
	<line class="st15" x1="36" y1="165" x2="146.5" y2="165"/>
	<path class="st15" d="M12.1,148L12.1,148c5.6,0,10.1,4.5,10.1,10.1v0c0,5.6-4.5,10.1-10.1,10.1c-5.6,0-10.1-4.5-10.1-10.1v0
		C2,152.5,6.5,148,12.1,148z"/>
	<path class="st16" d="M769.8,205L769.8,205c7.7,0,13.9-6.2,13.9-13.8c0-7.6-6.2-13.8-13.8-13.8h0c-7.6,0-13.8,6.2-13.8,13.8
		C756,198.8,762.2,205,769.8,205z"/>
	<path class="st12" d="M468,99c0,8.3,6.7,15,15,15s15-6.7,15-15"/>
	<path class="st12" d="M468,99c0,8.3,6.7,15,15,15s15-6.7,15-15"/>
</g>
</svg>
