<?xml version="1.0" encoding="utf-8"?>
<!-- Generator: Adobe Illustrator 23.0.1, SVG Export Plug-In . SVG Version: 6.00 Build 0)  -->
<svg version="1.1" id="Layer_1" xmlns="http://www.w3.org/2000/svg" xmlns:xlink="http://www.w3.org/1999/xlink" x="0px" y="0px"
	 viewBox="0 0 883 684" style="enable-background:new 0 0 883 684;" xml:space="preserve">
<style type="text/css">
	.st0{fill:none;stroke:#302C37;stroke-width:4;}
	.st1{fill:none;stroke:#302C37;stroke-width:4;stroke-linecap:round;stroke-linejoin:round;}
	.st2{fill:#302C37;}
	.st3{clip-path:url(#SVGID_2_);fill:#FFFFFF;}
	.st4{clip-path:url(#SVGID_4_);fill:#302C37;}
	.st5{clip-path:url(#SVGID_6_);fill:#FFFFFF;}
	.st6{clip-path:url(#SVGID_8_);fill:#302C37;}
	.st7{clip-path:url(#SVGID_10_);fill:#FFFFFF;}
	.st8{clip-path:url(#SVGID_12_);fill:#FFFFFF;}
	.st9{clip-path:url(#SVGID_14_);fill:#302C37;}
	.st10{clip-path:url(#SVGID_16_);fill:#302C37;}
	.st11{clip-path:url(#SVGID_18_);fill:#302C37;}
	.st12{clip-path:url(#SVGID_20_);fill:#302C37;}
	.st13{clip-path:url(#SVGID_22_);fill:#302C37;}
	.st14{clip-path:url(#SVGID_24_);fill:#302C37;}
	.st15{clip-path:url(#SVGID_26_);fill:#302C37;}
	.st16{clip-path:url(#SVGID_28_);fill:#302C37;}
	.st17{clip-path:url(#SVGID_30_);fill:#302C37;}
	.st18{clip-path:url(#SVGID_32_);fill:#302C37;}
	.st19{clip-path:url(#SVGID_34_);fill:#302C37;}
	.st20{clip-path:url(#SVGID_36_);fill:#302C37;}
	.st21{clip-path:url(#SVGID_38_);fill:#302C37;}
	.st22{clip-path:url(#SVGID_40_);fill:#302C37;}
	.st23{fill:#719AEB;}
	.st24{clip-path:url(#SVGID_42_);fill:#FFFFFF;}
	.st25{clip-path:url(#SVGID_44_);fill:#719AEB;}
	.st26{clip-path:url(#SVGID_46_);fill:#FFFFFF;}
	.st27{clip-path:url(#SVGID_48_);fill:#719AEB;}
	.st28{clip-path:url(#SVGID_50_);fill:#FFFFFF;}
	.st29{clip-path:url(#SVGID_52_);fill:#FFFFFF;}
	.st30{clip-path:url(#SVGID_54_);fill:#719AEB;}
	.st31{clip-path:url(#SVGID_56_);fill:#719AEB;}
	.st32{clip-path:url(#SVGID_58_);fill:#719AEB;}
	.st33{clip-path:url(#SVGID_60_);fill:#719AEB;}
	.st34{clip-path:url(#SVGID_62_);fill:#719AEB;}
	.st35{clip-path:url(#SVGID_64_);fill:#719AEB;}
	.st36{clip-path:url(#SVGID_66_);fill:#719AEB;}
	.st37{clip-path:url(#SVGID_68_);fill:#719AEB;}
	.st38{clip-path:url(#SVGID_70_);fill:#719AEB;}
	.st39{clip-path:url(#SVGID_72_);fill:#719AEB;}
	.st40{clip-path:url(#SVGID_74_);fill:#719AEB;}
	.st41{clip-path:url(#SVGID_76_);fill:#719AEB;}
	.st42{clip-path:url(#SVGID_78_);fill:#719AEB;}
	.st43{clip-path:url(#SVGID_80_);fill:#719AEB;}
	.st44{fill:none;stroke:#9782EA;stroke-width:6;}
	.st45{fill:#FFE974;}
	.st46{fill:none;stroke:#FFE974;stroke-width:0.5;}
	.st47{fill:none;stroke:#EBA471;stroke-width:6;}
	.st48{fill:none;stroke:#719AEB;stroke-width:6;}
	.st49{fill:none;stroke:#EB7187;stroke-width:6;}
	.st50{fill:none;stroke:#9782EA;stroke-width:6;stroke-linecap:round;stroke-linejoin:round;}
	.st51{fill:none;stroke:#9682EA;stroke-width:4;stroke-linecap:round;stroke-linejoin:round;}
	.st52{fill:none;stroke:#FFE974;stroke-width:6;}
</style>
<g>
	<path class="st0" d="M746.3,518h196.6c8.5,0,15.3,6.9,15.3,15.3v132.6c0,8.5-6.9,15.3-15.3,15.3H746.3c-8.5,0-15.3-6.9-15.3-15.3
		V533.3C731,524.9,737.9,518,746.3,518z"/>
	<line class="st1" x1="877" y1="539.2" x2="935.3" y2="539.2"/>
	<line class="st1" x1="751" y1="611.2" x2="809.3" y2="611.2"/>
	<line class="st1" x1="877" y1="551.2" x2="931" y2="551.2"/>
	<line class="st1" x1="755" y1="623.2" x2="809" y2="623.2"/>
	<line class="st1" x1="877" y1="563.2" x2="915" y2="563.2"/>
	<line class="st1" x1="771" y1="635.2" x2="809" y2="635.2"/>
	<path class="st2" d="M756,536v2h97.1c1.1,0,2.1,0.4,2.8,1.2c0.7,0.7,1.2,1.7,1.2,2.8v44.1c0,1.1-0.4,2.1-1.2,2.8
		c-0.7,0.7-1.7,1.2-2.8,1.2H756c-1.1,0-2.1-0.4-2.8-1.2c-0.7-0.7-1.2-1.7-1.2-2.8V542c0-1.1,0.4-2.1,1.2-2.8
		c0.7-0.7,1.7-1.2,2.8-1.2V536v-2c-4.4,0-8,3.6-8,8v44.1c0,4.4,3.6,8,8,8h97.1c4.4,0,8-3.6,8-8V542c0-4.4-3.6-8-8-8H756V536"/>
	<g>
		<g>
			<defs>
				<polyline id="SVGID_1_" points="747.3,534.3 861.7,534.3 861.7,593.4 747.3,593.4 747.3,534.3 				"/>
			</defs>
			<clipPath id="SVGID_2_">
				<use xlink:href="#SVGID_1_"  style="overflow:visible;"/>
			</clipPath>
			<path class="st3" d="M860.5,589.3c-0.6,1.3-1.4,2.4-2.5,3.2l1.8,0.9l1.8-3.6L860.5,589.3"/>
		</g>
		<g>
			<defs>
				<polyline id="SVGID_3_" points="747.3,534.3 861.7,534.3 861.7,593.4 747.3,593.4 747.3,534.3 				"/>
			</defs>
			<clipPath id="SVGID_4_">
				<use xlink:href="#SVGID_3_"  style="overflow:visible;"/>
			</clipPath>
			<path class="st4" d="M860.5,589.3c-0.6,1.3-1.4,2.4-2.5,3.2l0,0C859.1,591.7,860,590.6,860.5,589.3L860.5,589.3"/>
		</g>
		<g>
			<defs>
				<polyline id="SVGID_5_" points="747.3,534.3 861.7,534.3 861.7,593.4 747.3,593.4 747.3,534.3 				"/>
			</defs>
			<clipPath id="SVGID_6_">
				<use xlink:href="#SVGID_5_"  style="overflow:visible;"/>
			</clipPath>
			<path class="st5" d="M859.9,534.3L859.9,534.3l-2.2,1.1c0.4,0.2,0.7,0.5,1,0.8c0.7,0.7,1.3,1.4,1.7,2.3l1.3-0.6L859.9,534.3"/>
		</g>
		<g>
			<defs>
				<polyline id="SVGID_7_" points="747.3,534.3 861.7,534.3 861.7,593.4 747.3,593.4 747.3,534.3 				"/>
			</defs>
			<clipPath id="SVGID_8_">
				<use xlink:href="#SVGID_7_"  style="overflow:visible;"/>
			</clipPath>
			<path class="st6" d="M858.7,536.2c0.7,0.7,1.3,1.4,1.7,2.3l0,0C860,537.7,859.4,536.9,858.7,536.2"/>
		</g>
		<g>
			<defs>
				<polyline id="SVGID_9_" points="747.3,534.3 861.7,534.3 861.7,593.4 747.3,593.4 747.3,534.3 				"/>
			</defs>
			<clipPath id="SVGID_10_">
				<use xlink:href="#SVGID_9_"  style="overflow:visible;"/>
			</clipPath>
			<path class="st7" d="M749.1,534.3L749.1,534.3l-1.8,3.6l0,0l1.4,0.7c0.6-1.3,1.5-2.4,2.6-3.2L749.1,534.3"/>
		</g>
		<g>
			<defs>
				<polyline id="SVGID_11_" points="747.3,534.3 861.7,534.3 861.7,593.4 747.3,593.4 747.3,534.3 				"/>
			</defs>
			<clipPath id="SVGID_12_">
				<use xlink:href="#SVGID_11_"  style="overflow:visible;"/>
			</clipPath>
			<path class="st8" d="M748.6,589.3l-1.2,0.6l1.8,3.6l1.9-0.9C750,591.7,749.2,590.5,748.6,589.3"/>
		</g>
		<g>
			<defs>
				<polyline id="SVGID_13_" points="747.3,534.3 861.7,534.3 861.7,593.4 747.3,593.4 747.3,534.3 				"/>
			</defs>
			<clipPath id="SVGID_14_">
				<use xlink:href="#SVGID_13_"  style="overflow:visible;"/>
			</clipPath>
			<path class="st9" d="M748.6,589.3L748.6,589.3c0.5,1.3,1.4,2.4,2.5,3.2l0,0C750,591.7,749.2,590.5,748.6,589.3"/>
		</g>
		<g>
			<defs>
				<polyline id="SVGID_15_" points="747.3,534.3 861.7,534.3 861.7,593.4 747.3,593.4 747.3,534.3 				"/>
			</defs>
			<clipPath id="SVGID_16_">
				<use xlink:href="#SVGID_15_"  style="overflow:visible;"/>
			</clipPath>
			<path class="st10" d="M756.5,538H756c-1.1,0-2.1,0.4-2.8,1.2c-0.3,0.3-0.6,0.8-0.8,1.2l47.6,23.5l4.5-2.2L756.5,538"/>
		</g>
		<g>
			<defs>
				<polyline id="SVGID_17_" points="747.3,534.3 861.7,534.3 861.7,593.4 747.3,593.4 747.3,534.3 				"/>
			</defs>
			<clipPath id="SVGID_18_">
				<use xlink:href="#SVGID_17_"  style="overflow:visible;"/>
			</clipPath>
			<path class="st11" d="M756.5,538H756c-1.1,0-2.1,0.4-2.8,1.2c-0.3,0.3-0.6,0.8-0.8,1.2l0,0c0.2-0.5,0.5-0.9,0.8-1.2
				c0.7-0.7,1.7-1.2,2.8-1.2l0,0H756.5L756.5,538"/>
		</g>
		<g>
			<defs>
				<polyline id="SVGID_19_" points="747.3,534.3 861.7,534.3 861.7,593.4 747.3,593.4 747.3,534.3 				"/>
			</defs>
			<clipPath id="SVGID_20_">
				<use xlink:href="#SVGID_19_"  style="overflow:visible;"/>
			</clipPath>
			<path class="st12" d="M809,563.9l-4.5,2.2l48.7,24c1.1,0,2.1-0.5,2.8-1.2c0.4-0.4,0.7-0.9,0.9-1.4L809,563.9"/>
		</g>
		<g>
			<defs>
				<polyline id="SVGID_21_" points="747.3,534.3 861.7,534.3 861.7,593.4 747.3,593.4 747.3,534.3 				"/>
			</defs>
			<clipPath id="SVGID_22_">
				<use xlink:href="#SVGID_21_"  style="overflow:visible;"/>
			</clipPath>
			<path class="st13" d="M853.2,538h-0.7l-48,23.7l-4.5,2.2l-47.8,23.6c0.2,0.6,0.5,1.1,1,1.5c0.1,0.1,0.1,0.1,0.2,0.2
				c0.7,0.6,1.5,0.9,2.4,1l48.7-24l4.5-2.2l47.8-23.6c-0.2-0.4-0.5-0.8-0.8-1.1C855.3,538.4,854.3,538,853.2,538"/>
		</g>
		<g>
			<defs>
				<polyline id="SVGID_23_" points="747.3,534.3 861.7,534.3 861.7,593.4 747.3,593.4 747.3,534.3 				"/>
			</defs>
			<clipPath id="SVGID_24_">
				<use xlink:href="#SVGID_23_"  style="overflow:visible;"/>
			</clipPath>
			<path class="st14" d="M752.2,587.5L752.2,587.5c0.2,0.6,0.5,1.1,1,1.5c0.1,0.1,0.1,0.1,0.2,0.2c-0.1-0.1-0.1-0.1-0.2-0.2
				C752.8,588.6,752.4,588.1,752.2,587.5 M853.2,538h-0.7l0,0H853.2c1.1,0,2.1,0.4,2.8,1.2l0,0C855.3,538.4,854.3,538,853.2,538"/>
		</g>
		<g>
			<defs>
				<polyline id="SVGID_25_" points="747.3,534.3 861.7,534.3 861.7,593.4 747.3,593.4 747.3,534.3 				"/>
			</defs>
			<clipPath id="SVGID_26_">
				<use xlink:href="#SVGID_25_"  style="overflow:visible;"/>
			</clipPath>
			<path class="st15" d="M751.4,535.5c-1.1,0.8-2.1,1.9-2.6,3.2l0,0C749.4,537.3,750.3,536.3,751.4,535.5L751.4,535.5"/>
		</g>
		<g>
			<defs>
				<polyline id="SVGID_27_" points="747.3,534.3 861.7,534.3 861.7,593.4 747.3,593.4 747.3,534.3 				"/>
			</defs>
			<clipPath id="SVGID_28_">
				<use xlink:href="#SVGID_27_"  style="overflow:visible;"/>
			</clipPath>
			<path class="st16" d="M751.4,535.5c-1.1,0.8-2.1,1.9-2.6,3.2l3.6,1.8c0.2-0.5,0.5-0.9,0.8-1.2c0.7-0.7,1.7-1.2,2.8-1.2l0,0h0.5
				L751.4,535.5"/>
		</g>
		<g>
			<defs>
				<polyline id="SVGID_29_" points="747.3,534.3 861.7,534.3 861.7,593.4 747.3,593.4 747.3,534.3 				"/>
			</defs>
			<clipPath id="SVGID_30_">
				<use xlink:href="#SVGID_29_"  style="overflow:visible;"/>
			</clipPath>
			<path class="st17" d="M856.9,587.6c-0.2,0.5-0.5,1-0.9,1.4c-0.7,0.7-1.7,1.2-2.8,1.2l0,0c1.1,0,2.1-0.5,2.8-1.2
				C856.4,588.6,856.7,588.1,856.9,587.6L856.9,587.6"/>
		</g>
		<g>
			<defs>
				<polyline id="SVGID_31_" points="747.3,534.3 861.7,534.3 861.7,593.4 747.3,593.4 747.3,534.3 				"/>
			</defs>
			<clipPath id="SVGID_32_">
				<use xlink:href="#SVGID_31_"  style="overflow:visible;"/>
			</clipPath>
			<path class="st18" d="M856.9,587.6c-0.2,0.5-0.5,1-0.9,1.4c-0.7,0.7-1.7,1.2-2.8,1.2l4.8,2.4c1.1-0.8,2-1.9,2.5-3.2L856.9,587.6"
				/>
		</g>
		<g>
			<defs>
				<polyline id="SVGID_33_" points="747.3,534.3 861.7,534.3 861.7,593.4 747.3,593.4 747.3,534.3 				"/>
			</defs>
			<clipPath id="SVGID_34_">
				<use xlink:href="#SVGID_33_"  style="overflow:visible;"/>
			</clipPath>
			<path class="st19" d="M856,539.2c0.3,0.3,0.6,0.7,0.8,1.1l0,0C856.6,539.9,856.3,539.5,856,539.2L856,539.2 M857.7,535.4
				L857.7,535.4c0.4,0.2,0.7,0.5,1,0.8C858.4,535.9,858.1,535.7,857.7,535.4"/>
		</g>
		<g>
			<defs>
				<polyline id="SVGID_35_" points="747.3,534.3 861.7,534.3 861.7,593.4 747.3,593.4 747.3,534.3 				"/>
			</defs>
			<clipPath id="SVGID_36_">
				<use xlink:href="#SVGID_35_"  style="overflow:visible;"/>
			</clipPath>
			<path class="st20" d="M857.7,535.4l-5.2,2.6h0.7c1.1,0,2.1,0.4,2.8,1.2l0,0l0,0c0.3,0.3,0.6,0.7,0.8,1.1l3.6-1.8
				c-0.4-0.9-1-1.6-1.7-2.3C858.4,535.9,858.1,535.7,857.7,535.4"/>
		</g>
		<g>
			<defs>
				<polyline id="SVGID_37_" points="747.3,534.3 861.7,534.3 861.7,593.4 747.3,593.4 747.3,534.3 				"/>
			</defs>
			<clipPath id="SVGID_38_">
				<use xlink:href="#SVGID_37_"  style="overflow:visible;"/>
			</clipPath>
			<path class="st21" d="M753.4,589.2c0.7,0.6,1.5,0.9,2.4,1l0,0C754.9,590.1,754,589.8,753.4,589.2"/>
		</g>
		<g>
			<defs>
				<polyline id="SVGID_39_" points="747.3,534.3 861.7,534.3 861.7,593.4 747.3,593.4 747.3,534.3 				"/>
			</defs>
			<clipPath id="SVGID_40_">
				<use xlink:href="#SVGID_39_"  style="overflow:visible;"/>
			</clipPath>
			<path class="st22" d="M752.2,587.5l-3.6,1.8c0.5,1.3,1.4,2.4,2.5,3.2l4.7-2.3c-0.9-0.1-1.8-0.4-2.4-1c-0.1-0.1-0.1-0.1-0.2-0.2
				C752.8,588.6,752.4,588.1,752.2,587.5"/>
		</g>
	</g>
	<path class="st23" d="M833,608v2h97.1c1.1,0,2.1,0.4,2.8,1.2c0.7,0.7,1.2,1.7,1.2,2.8v44.1c0,1.1-0.4,2.1-1.2,2.8
		c-0.7,0.7-1.7,1.2-2.8,1.2H833c-1.1,0-2.1-0.4-2.8-1.2c-0.7-0.7-1.2-1.7-1.2-2.8V614c0-1.1,0.4-2.1,1.2-2.8
		c0.7-0.7,1.7-1.2,2.8-1.2V608v-2c-4.4,0-8,3.6-8,8v44.1c0,4.4,3.6,8,8,8h97.1c4.4,0,8-3.6,8-8V614c0-4.4-3.6-8-8-8H833V608"/>
	<g>
		<g>
			<defs>
				<polyline id="SVGID_41_" points="824.3,606.3 938.7,606.3 938.7,665.4 824.3,665.4 824.3,606.3 				"/>
			</defs>
			<clipPath id="SVGID_42_">
				<use xlink:href="#SVGID_41_"  style="overflow:visible;"/>
			</clipPath>
			<path class="st24" d="M937.5,661.3c-0.6,1.3-1.4,2.4-2.5,3.2l1.8,0.9l1.8-3.6L937.5,661.3"/>
		</g>
		<g>
			<defs>
				<polyline id="SVGID_43_" points="824.3,606.3 938.7,606.3 938.7,665.4 824.3,665.4 824.3,606.3 				"/>
			</defs>
			<clipPath id="SVGID_44_">
				<use xlink:href="#SVGID_43_"  style="overflow:visible;"/>
			</clipPath>
			<path class="st25" d="M937.5,661.3c-0.6,1.3-1.4,2.4-2.5,3.2l0,0C936.1,663.7,937,662.6,937.5,661.3L937.5,661.3"/>
		</g>
		<g>
			<defs>
				<polyline id="SVGID_45_" points="824.3,606.3 938.7,606.3 938.7,665.4 824.3,665.4 824.3,606.3 				"/>
			</defs>
			<clipPath id="SVGID_46_">
				<use xlink:href="#SVGID_45_"  style="overflow:visible;"/>
			</clipPath>
			<path class="st26" d="M936.9,606.3L936.9,606.3l-2.2,1.1c0.5,0.3,0.9,0.7,1.3,1.2c0.5,0.6,1,1.3,1.3,2l1.3-0.6L936.9,606.3"/>
		</g>
		<g>
			<defs>
				<polyline id="SVGID_47_" points="824.3,606.3 938.7,606.3 938.7,665.4 824.3,665.4 824.3,606.3 				"/>
			</defs>
			<clipPath id="SVGID_48_">
				<use xlink:href="#SVGID_47_"  style="overflow:visible;"/>
			</clipPath>
			<path class="st27" d="M936,608.6c0.5,0.6,1,1.3,1.3,2l0,0C937,609.8,936.6,609.2,936,608.6"/>
		</g>
		<g>
			<defs>
				<polyline id="SVGID_49_" points="824.3,606.3 938.7,606.3 938.7,665.4 824.3,665.4 824.3,606.3 				"/>
			</defs>
			<clipPath id="SVGID_50_">
				<use xlink:href="#SVGID_49_"  style="overflow:visible;"/>
			</clipPath>
			<path class="st28" d="M826.1,606.3L826.1,606.3l-1.8,3.6l0,0l1.4,0.7c0.6-1.3,1.5-2.4,2.6-3.2L826.1,606.3"/>
		</g>
		<g>
			<defs>
				<polyline id="SVGID_51_" points="824.3,606.3 938.7,606.3 938.7,665.4 824.3,665.4 824.3,606.3 				"/>
			</defs>
			<clipPath id="SVGID_52_">
				<use xlink:href="#SVGID_51_"  style="overflow:visible;"/>
			</clipPath>
			<path class="st29" d="M825.6,661.3l-1.2,0.6l1.8,3.6l1.9-0.9C827,663.7,826.2,662.5,825.6,661.3"/>
		</g>
		<g>
			<defs>
				<polyline id="SVGID_53_" points="824.3,606.3 938.7,606.3 938.7,665.4 824.3,665.4 824.3,606.3 				"/>
			</defs>
			<clipPath id="SVGID_54_">
				<use xlink:href="#SVGID_53_"  style="overflow:visible;"/>
			</clipPath>
			<path class="st30" d="M825.6,661.3L825.6,661.3c0.5,1.3,1.4,2.4,2.5,3.2l0,0C827,663.7,826.2,662.5,825.6,661.3"/>
		</g>
		<g>
			<defs>
				<polyline id="SVGID_55_" points="824.3,606.3 938.7,606.3 938.7,665.4 824.3,665.4 824.3,606.3 				"/>
			</defs>
			<clipPath id="SVGID_56_">
				<use xlink:href="#SVGID_55_"  style="overflow:visible;"/>
			</clipPath>
			<path class="st31" d="M833.5,610H833c-1.1,0-2.1,0.4-2.8,1.2c-0.3,0.3-0.6,0.8-0.8,1.2l47.6,23.5l4.5-2.2L833.5,610"/>
		</g>
		<g>
			<defs>
				<polyline id="SVGID_57_" points="824.3,606.3 938.7,606.3 938.7,665.4 824.3,665.4 824.3,606.3 				"/>
			</defs>
			<clipPath id="SVGID_58_">
				<use xlink:href="#SVGID_57_"  style="overflow:visible;"/>
			</clipPath>
			<path class="st32" d="M833.5,610H833c-1.1,0-2.1,0.4-2.8,1.2c-0.3,0.3-0.6,0.8-0.8,1.2l0,0c0.2-0.5,0.5-0.9,0.8-1.2
				c0.7-0.7,1.7-1.2,2.8-1.2l0,0H833.5L833.5,610"/>
		</g>
		<g>
			<defs>
				<polyline id="SVGID_59_" points="824.3,606.3 938.7,606.3 938.7,665.4 824.3,665.4 824.3,606.3 				"/>
			</defs>
			<clipPath id="SVGID_60_">
				<use xlink:href="#SVGID_59_"  style="overflow:visible;"/>
			</clipPath>
			<path class="st33" d="M886,635.9l-4.5,2.2l48.7,24c1.1,0,2.1-0.5,2.8-1.2c0.4-0.4,0.7-0.9,0.9-1.4L886,635.9"/>
		</g>
		<g>
			<defs>
				<polyline id="SVGID_61_" points="824.3,606.3 938.7,606.3 938.7,665.4 824.3,665.4 824.3,606.3 				"/>
			</defs>
			<clipPath id="SVGID_62_">
				<use xlink:href="#SVGID_61_"  style="overflow:visible;"/>
			</clipPath>
			<path class="st34" d="M930.2,610h-0.7l-48,23.7l-4.5,2.2l-47.8,23.6c0,0.1,0.1,0.1,0.1,0.2c0.1,0.3,0.3,0.6,0.5,0.9l0,0l0,0
				c0.1,0.1,0.2,0.3,0.4,0.4c0.1,0.1,0.1,0.1,0.2,0.2c0.7,0.6,1.5,0.9,2.4,1l48.7-24l4.5-2.2l47.8-23.6c-0.2-0.4-0.5-0.8-0.8-1.1
				C932.3,610.4,931.3,610,930.2,610"/>
		</g>
		<g>
			<defs>
				<polyline id="SVGID_63_" points="824.3,606.3 938.7,606.3 938.7,665.4 824.3,665.4 824.3,606.3 				"/>
			</defs>
			<clipPath id="SVGID_64_">
				<use xlink:href="#SVGID_63_"  style="overflow:visible;"/>
			</clipPath>
			<path class="st35" d="M829.8,660.6c0.1,0.1,0.2,0.3,0.4,0.4c0.1,0.1,0.1,0.1,0.2,0.2c-0.1-0.1-0.1-0.1-0.2-0.2
				C830,660.9,829.9,660.7,829.8,660.6 M829.8,660.6L829.8,660.6L829.8,660.6 M829.2,659.5L829.2,659.5c0,0.1,0.1,0.1,0.1,0.2
				C829.3,659.6,829.2,659.6,829.2,659.5 M930.2,610h-0.7l0,0H930.2c1.1,0,2.1,0.4,2.8,1.2l0,0C932.3,610.4,931.3,610,930.2,610"/>
		</g>
		<g>
			<defs>
				<polyline id="SVGID_65_" points="824.3,606.3 938.7,606.3 938.7,665.4 824.3,665.4 824.3,606.3 				"/>
			</defs>
			<clipPath id="SVGID_66_">
				<use xlink:href="#SVGID_65_"  style="overflow:visible;"/>
			</clipPath>
			<path class="st36" d="M828.4,607.5c-1.1,0.8-2.1,1.9-2.6,3.2l0,0C826.4,609.3,827.3,608.3,828.4,607.5L828.4,607.5"/>
		</g>
		<g>
			<defs>
				<polyline id="SVGID_67_" points="824.3,606.3 938.7,606.3 938.7,665.4 824.3,665.4 824.3,606.3 				"/>
			</defs>
			<clipPath id="SVGID_68_">
				<use xlink:href="#SVGID_67_"  style="overflow:visible;"/>
			</clipPath>
			<path class="st37" d="M828.4,607.5c-1.1,0.8-2.1,1.9-2.6,3.2l3.6,1.8c0.2-0.5,0.5-0.9,0.8-1.2c0.7-0.7,1.7-1.2,2.8-1.2l0,0h0.5
				L828.4,607.5"/>
		</g>
		<g>
			<defs>
				<polyline id="SVGID_69_" points="824.3,606.3 938.7,606.3 938.7,665.4 824.3,665.4 824.3,606.3 				"/>
			</defs>
			<clipPath id="SVGID_70_">
				<use xlink:href="#SVGID_69_"  style="overflow:visible;"/>
			</clipPath>
			<path class="st38" d="M933.9,659.6c-0.2,0.5-0.5,1-0.9,1.4c-0.7,0.7-1.7,1.2-2.8,1.2l0,0c1.1,0,2.1-0.5,2.8-1.2
				C933.4,660.6,933.7,660.1,933.9,659.6L933.9,659.6"/>
		</g>
		<g>
			<defs>
				<polyline id="SVGID_71_" points="824.3,606.3 938.7,606.3 938.7,665.4 824.3,665.4 824.3,606.3 				"/>
			</defs>
			<clipPath id="SVGID_72_">
				<use xlink:href="#SVGID_71_"  style="overflow:visible;"/>
			</clipPath>
			<path class="st39" d="M933.9,659.6c-0.2,0.5-0.5,1-0.9,1.4c-0.7,0.7-1.7,1.2-2.8,1.2l4.8,2.4c1.1-0.8,2-1.9,2.5-3.2L933.9,659.6"
				/>
		</g>
		<g>
			<defs>
				<polyline id="SVGID_73_" points="824.3,606.3 938.7,606.3 938.7,665.4 824.3,665.4 824.3,606.3 				"/>
			</defs>
			<clipPath id="SVGID_74_">
				<use xlink:href="#SVGID_73_"  style="overflow:visible;"/>
			</clipPath>
			<path class="st40" d="M933,611.2c0.3,0.3,0.6,0.7,0.8,1.1l0,0C933.6,611.9,933.3,611.5,933,611.2L933,611.2 M934.7,607.4
				L934.7,607.4c0.5,0.3,0.9,0.7,1.3,1.2C935.6,608.1,935.2,607.7,934.7,607.4"/>
		</g>
		<g>
			<defs>
				<polyline id="SVGID_75_" points="824.3,606.3 938.7,606.3 938.7,665.4 824.3,665.4 824.3,606.3 				"/>
			</defs>
			<clipPath id="SVGID_76_">
				<use xlink:href="#SVGID_75_"  style="overflow:visible;"/>
			</clipPath>
			<path class="st41" d="M934.7,607.4l-5.2,2.6h0.7c1.1,0,2.1,0.4,2.8,1.2l0,0l0,0c0.3,0.3,0.6,0.7,0.8,1.1l3.6-1.8
				c-0.4-0.7-0.8-1.4-1.3-2C935.6,608.1,935.2,607.7,934.7,607.4"/>
		</g>
		<g>
			<defs>
				<polyline id="SVGID_77_" points="824.3,606.3 938.7,606.3 938.7,665.4 824.3,665.4 824.3,606.3 				"/>
			</defs>
			<clipPath id="SVGID_78_">
				<use xlink:href="#SVGID_77_"  style="overflow:visible;"/>
			</clipPath>
			<path class="st42" d="M830.4,661.2c0.7,0.6,1.5,0.9,2.4,1l0,0C831.9,662.1,831,661.8,830.4,661.2 M829.8,660.6L829.8,660.6
				L829.8,660.6 M829.3,659.7c0.1,0.3,0.3,0.6,0.5,0.9C829.6,660.3,829.4,660,829.3,659.7"/>
		</g>
		<g>
			<defs>
				<polyline id="SVGID_79_" points="824.3,606.3 938.7,606.3 938.7,665.4 824.3,665.4 824.3,606.3 				"/>
			</defs>
			<clipPath id="SVGID_80_">
				<use xlink:href="#SVGID_79_"  style="overflow:visible;"/>
			</clipPath>
			<path class="st43" d="M829.2,659.5l-3.6,1.8c0.5,1.3,1.4,2.4,2.5,3.2l4.7-2.3c-0.9-0.1-1.8-0.4-2.4-1c-0.1-0.1-0.1-0.1-0.2-0.2
				c-0.1-0.1-0.3-0.3-0.4-0.4l0,0l0,0c-0.2-0.3-0.4-0.6-0.5-0.9C829.3,659.6,829.2,659.6,829.2,659.5"/>
		</g>
	</g>
	<path class="st0" d="M846.3,248h58.5c8.5,0,15.3,6.9,15.3,15.3v77.5c0,8.5-6.9,15.3-15.3,15.3h-58.5c-8.5,0-15.3-6.9-15.3-15.3
		v-77.5C831,254.9,837.9,248,846.3,248z"/>
	<path class="st0" d="M875.8,298L875.8,298c8.2,0,14.9-6.6,14.9-14.8c0-8.2-6.6-14.8-14.8-14.8l0,0c-8.2,0-14.8,6.6-14.8,14.8
		C861,291.4,867.6,298,875.8,298z"/>
	<line class="st1" x1="846" y1="315.2" x2="904.3" y2="315.2"/>
	<line class="st1" x1="849" y1="326.2" x2="903" y2="326.2"/>
	<line class="st1" x1="857" y1="337.2" x2="895" y2="337.2"/>
	<path class="st0" d="M846.3,123h58.5c8.5,0,15.3,6.9,15.3,15.3v77.5c0,8.5-6.9,15.3-15.3,15.3h-58.5c-8.5,0-15.3-6.9-15.3-15.3
		v-77.5C831,129.9,837.9,123,846.3,123z"/>
	<path class="st0" d="M875.8,173L875.8,173c8.2,0,14.9-6.6,14.9-14.8s-6.6-14.8-14.8-14.8l0,0c-8.2,0-14.8,6.6-14.8,14.8
		C861,166.4,867.6,173,875.8,173z"/>
	<line class="st1" x1="846" y1="190.2" x2="904.3" y2="190.2"/>
	<line class="st1" x1="849" y1="201.2" x2="903" y2="201.2"/>
	<line class="st1" x1="857" y1="212.2" x2="895" y2="212.2"/>
	<path class="st0" d="M740.3,156h58.5c8.5,0,15.3,6.9,15.3,15.3v77.5c0,8.5-6.9,15.3-15.3,15.3h-58.5c-8.5,0-15.3-6.9-15.3-15.3
		v-77.5C725,162.9,731.9,156,740.3,156z"/>
	<path class="st0" d="M769.8,206L769.8,206c8.2,0,14.9-6.6,14.9-14.8s-6.6-14.8-14.8-14.8l0,0c-8.2,0-14.8,6.6-14.8,14.8
		C755,199.4,761.6,206,769.8,206z"/>
	<line class="st1" x1="740" y1="223.2" x2="798.3" y2="223.2"/>
	<line class="st1" x1="743" y1="234.2" x2="797" y2="234.2"/>
	<line class="st1" x1="751" y1="245.2" x2="789" y2="245.2"/>
	<path class="st1" d="M23.3,466h92.8c11.8,0,21.3,9.5,21.3,21.3v13.9c0,11.8-9.5,21.3-21.3,21.3H23.3C11.5,522.5,2,513,2,501.2
		v-13.9C2,475.5,11.5,466,23.3,466z"/>
	<line class="st1" x1="27" y1="488.7" x2="84.7" y2="488.7"/>
	<path class="st1" d="M107.6,502.2c4.8,0,8.6-3.9,8.6-8.6s-3.9-8.6-8.6-8.6c-4.8,0-8.6,3.9-8.6,8.6S102.9,502.2,107.6,502.2z"/>
	<line class="st1" x1="48" y1="499.3" x2="84" y2="499.3"/>
	<path class="st1" d="M23.3,536h92.8c11.8,0,21.3,9.5,21.3,21.3v13.9c0,11.8-9.5,21.3-21.3,21.3H23.3C11.5,592.5,2,583,2,571.2
		v-13.9C2,545.5,11.5,536,23.3,536z"/>
	<line class="st1" x1="55" y1="558.7" x2="112.7" y2="558.7"/>
	
		<ellipse transform="matrix(0.9999 -1.020247e-02 1.020247e-02 0.9999 -5.7484 0.3619)" class="st1" cx="32.6" cy="563.6" rx="8.6" ry="8.6"/>
	<line class="st1" x1="55" y1="569.3" x2="91" y2="569.3"/>
	<path class="st1" d="M23.3,396h92.8c11.8,0,21.3,9.5,21.3,21.3v13.9c0,11.8-9.5,21.3-21.3,21.3H23.3C11.5,452.5,2,443,2,431.2
		v-13.9C2,405.5,11.5,396,23.3,396z"/>
	<line class="st1" x1="55" y1="418.7" x2="112.7" y2="418.7"/>
	<line class="st1" x1="55" y1="429.3" x2="91" y2="429.3"/>
	<path class="st1" d="M12.1,148L12.1,148c5.6,0,10.1,4.5,10.1,10.1l0,0c0,5.6-4.5,10.1-10.1,10.1S2,163.7,2,158.1l0,0
		C2,152.5,6.5,148,12.1,148z"/>
	<line class="st1" x1="36.1" y1="151.9" x2="207.1" y2="151.9"/>
	<line class="st1" x1="36.1" y1="164.9" x2="146.7" y2="164.9"/>
	<path class="st1" d="M12.1,187L12.1,187c5.6,0,10.1,4.5,10.1,10.1l0,0c0,5.6-4.5,10.1-10.1,10.1S2,202.7,2,197.1l0,0
		C2,191.5,6.5,187,12.1,187z"/>
	<line class="st1" x1="36.1" y1="189.9" x2="207.1" y2="189.9"/>
	<line class="st1" x1="36.1" y1="202.9" x2="146.7" y2="202.9"/>
	<path class="st1" d="M15.9,64h235.7c7.7,0,13.9,6.2,13.9,13.9s-6.2,13.9-13.9,13.9H15.9C8.2,91.9,2,85.6,2,77.9S8.2,64,15.9,64z"/>
	<path class="st1" d="M12.1,110L12.1,110c5.6,0,10.1,4.5,10.1,10.1l0,0c0,5.6-4.5,10.1-10.1,10.1S2,125.7,2,120.1l0,0
		C2,114.5,6.5,110,12.1,110z"/>
	<line class="st1" x1="36.1" y1="113.9" x2="207.1" y2="113.9"/>
	<line class="st1" x1="36.1" y1="125.9" x2="146.7" y2="125.9"/>
	
		<rect x="289.8" y="112.9" transform="matrix(0.9688 -0.2478 0.2478 0.9688 -21.5318 78.6837)" class="st44" width="24" height="24"/>
	<path class="st45" d="M191.3,636.2 M166.6,641.6l-9.7-5.5l9.7-5.5l0,0c0.6-0.3,1-0.7,1.3-1c0.3-0.4,0.4-0.8,0.4-1.3
		c0-0.6-0.1-1-0.5-1.4c-0.3-0.4-0.7-0.6-1.3-0.6c-0.2,0-0.4,0-0.6,0.1c-0.2,0.1-0.5,0.2-1,0.4l0,0l-12.3,6.9l0,0l0,0l-0.1,0.1
		c-1.2,0.6-1.8,1.4-1.8,2.4s0.6,1.7,1.8,2.4l0,0l0,0c0.1,0.1,0.2,0.1,0.3,0.1l0,0l12.2,6.8l0,0c0.3,0.2,0.6,0.3,0.8,0.4l0,0
		c0.2,0.1,0.5,0.1,0.7,0.1c0.5,0,0.9-0.2,1.3-0.6c0.3-0.4,0.5-0.9,0.5-1.4s-0.1-0.9-0.4-1.3C167.7,642.3,167.2,641.9,166.6,641.6z
		 M173.1,649.6L173.1,649.6c0.4,0.4,0.9,0.6,1.4,0.6c0.4,0,0.8-0.2,1-0.5c0.3-0.3,0.5-0.9,0.8-1.6l9.1-23.4l0,0
		c0.2-0.4,0.3-0.8,0.4-1.1c0.1-0.3,0.1-0.5,0.1-0.8c0-0.6-0.2-1.1-0.6-1.5c-0.4-0.4-0.9-0.6-1.4-0.6c-0.4,0-0.8,0.2-1,0.5
		c-0.3,0.3-0.5,0.9-0.8,1.6l-9.1,23.4v0.1l0,0c-0.3,0.8-0.4,1.4-0.4,1.8C172.5,648.7,172.7,649.2,173.1,649.6z"/>
	<path class="st46" d="M191.3,636.2 M166.6,641.6l-9.7-5.5l9.7-5.5l0,0c0.6-0.3,1-0.7,1.3-1c0.3-0.4,0.4-0.8,0.4-1.3
		c0-0.6-0.1-1-0.5-1.4c-0.3-0.4-0.7-0.6-1.3-0.6c-0.2,0-0.4,0-0.6,0.1c-0.2,0.1-0.5,0.2-1,0.4l0,0l-12.3,6.9l0,0l0,0l-0.1,0.1
		c-1.2,0.6-1.8,1.4-1.8,2.4s0.6,1.7,1.8,2.4l0,0l0,0c0.1,0.1,0.2,0.1,0.3,0.1l0,0l12.2,6.8l0,0c0.3,0.2,0.6,0.3,0.8,0.4l0,0
		c0.2,0.1,0.5,0.1,0.7,0.1c0.5,0,0.9-0.2,1.3-0.6c0.3-0.4,0.5-0.9,0.5-1.4s-0.1-0.9-0.4-1.3C167.7,642.3,167.2,641.9,166.6,641.6z
		 M173.1,649.6L173.1,649.6c0.4,0.4,0.9,0.6,1.4,0.6c0.4,0,0.8-0.2,1-0.5c0.3-0.3,0.5-0.9,0.8-1.6l9.1-23.4l0,0
		c0.2-0.4,0.3-0.8,0.4-1.1c0.1-0.3,0.1-0.5,0.1-0.8c0-0.6-0.2-1.1-0.6-1.5c-0.4-0.4-0.9-0.6-1.4-0.6c-0.4,0-0.8,0.2-1,0.5
		c-0.3,0.3-0.5,0.9-0.8,1.6l-9.1,23.4v0.1l0,0c-0.3,0.8-0.4,1.4-0.4,1.8C172.5,648.7,172.7,649.2,173.1,649.6z"/>
	<polygon class="st47" points="708.7,93.6 687,87.5 703.1,71.8 	"/>
	<polygon class="st48" points="818.8,566.7 824.9,545 840.6,561.1 	"/>
	<polygon class="st49" points="123,536.5 117.7,514.6 139.3,520.9 	"/>
	<circle class="st49" cx="32.5" cy="423.5" r="8.5"/>
	<circle class="st47" cx="744.5" cy="366.5" r="8.5"/>
	<path class="st48" d="M498,99c0-8.3-6.7-15-15-15s-15,6.7-15,15"/>
	<line class="st50" x1="831" y1="472" x2="819" y2="484"/>
	<line class="st50" x1="819" y1="472" x2="831" y2="484"/>
	<line class="st50" x1="592.5" y1="136.5" x2="592.5" y2="153.5"/>
	<line class="st50" x1="584" y1="145" x2="601" y2="145"/>
	<line class="st51" x1="36.1" y1="151.9" x2="207.1" y2="151.9"/>
	<line class="st51" x1="36" y1="165" x2="146.5" y2="165"/>
	<path class="st51" d="M12.1,148L12.1,148c5.6,0,10.1,4.5,10.1,10.1l0,0c0,5.6-4.5,10.1-10.1,10.1S2,163.7,2,158.1l0,0
		C2,152.5,6.5,148,12.1,148z"/>
	<path class="st52" d="M769.8,205L769.8,205c7.7,0,13.9-6.2,13.9-13.8s-6.2-13.8-13.8-13.8l0,0c-7.6,0-13.8,6.2-13.8,13.8
		C756,198.8,762.2,205,769.8,205z"/>
	<path class="st48" d="M468,99c0,8.3,6.7,15,15,15s15-6.7,15-15"/>
	<path class="st48" d="M468,99c0,8.3,6.7,15,15,15s15-6.7,15-15"/>
</g>
<path class="st45" d="M190.6,630.7l9.7,5.5l-9.7,5.5l0,0c-0.6,0.3-1,0.7-1.3,1c-0.3,0.4-0.4,0.8-0.4,1.3c0,0.6,0.1,1,0.5,1.4
	c0.3,0.4,0.7,0.6,1.3,0.6c0.2,0,0.4,0,0.6-0.1c0.2-0.1,0.5-0.2,1-0.4l0,0l12.3-6.9l0,0l0,0l0.1-0.1c1.2-0.6,1.8-1.4,1.8-2.4
	s-0.6-1.7-1.8-2.4l0,0l0,0c-0.1-0.1-0.2-0.1-0.3-0.1l0,0l-12.2-6.8l0,0c-0.3-0.2-0.6-0.3-0.8-0.4l0,0c-0.2-0.1-0.5-0.1-0.7-0.1
	c-0.5,0-0.9,0.2-1.3,0.6c-0.3,0.4-0.5,0.9-0.5,1.4s0.1,0.9,0.4,1.3C189.5,630,190,630.4,190.6,630.7z"/>
<path class="st46" d="M190.6,630.7l9.7,5.5l-9.7,5.5l0,0c-0.6,0.3-1,0.7-1.3,1c-0.3,0.4-0.4,0.8-0.4,1.3c0,0.6,0.1,1,0.5,1.4
	c0.3,0.4,0.7,0.6,1.3,0.6c0.2,0,0.4,0,0.6-0.1c0.2-0.1,0.5-0.2,1-0.4l0,0l12.3-6.9l0,0l0,0l0.1-0.1c1.2-0.6,1.8-1.4,1.8-2.4
	s-0.6-1.7-1.8-2.4l0,0l0,0c-0.1-0.1-0.2-0.1-0.3-0.1l0,0l-12.2-6.8l0,0c-0.3-0.2-0.6-0.3-0.8-0.4l0,0c-0.2-0.1-0.5-0.1-0.7-0.1
	c-0.5,0-0.9,0.2-1.3,0.6c-0.3,0.4-0.5,0.9-0.5,1.4s0.1,0.9,0.4,1.3C189.5,630,190,630.4,190.6,630.7z"/>
</svg>
