<?xml version="1.0" encoding="UTF-8"?>
<svg width="130px" height="130px" viewBox="0 0 130 130" version="1.1" xmlns="http://www.w3.org/2000/svg" xmlns:xlink="http://www.w3.org/1999/xlink">
    <!-- Generator: Sketch 52.5 (67469) - http://www.bohemiancoding.com/sketch -->
    <title>amazon</title>
    <desc>Created with Sketch.</desc>
    <defs>
        <polygon id="path-1" points="0.06 0.04 129.935 0.04 129.935 130 0.06 130"></polygon>
        <path d="M67.2677932,0.04 C102.083222,1.2523966 129.935,29.8724993 129.935,65 C129.935,100.899 100.848,130 64.967,130 C62.033,130 59.143,129.802 56.311,129.425 C56.572,129.313 104.343,108.688 109.911,71.992 C109.939,71.809 109.964,71.624 109.989,71.44 C110.046,71.035 110.099,70.63 110.145,70.221 C110.186,69.861 110.223,69.502 110.255,69.139 C110.27,68.975 110.286,68.81 110.299,68.645 C110.34,68.125 110.372,67.603 110.396,67.079 C110.401,66.952 110.405,66.825 110.41,66.699 C110.431,66.136 110.445,65.569 110.445,65 C110.445,40.028 90.337,19.754 65.436,19.502 C40.445,19.25 20.091,38.905 19.503,63.904 C19.02,84.438 32.139,101.976 50.478,108.139 C53.977,109.313 56.306,112.633 56.306,116.326 L56.306,129.424 C25.4318189,125.308414 1.41129369,99.501535 0.0599997915,67.8189387 L0.06,62.1810301 C1.50276741,28.353263 28.7878555,1.21979819 62.6662698,0.04 L67.2677932,0.04 Z" id="path-3"></path>
    </defs>
    <g id="amazon" stroke="none" stroke-width="1" fill="none" fill-rule="evenodd">
        <g id="Group-3">
            <mask id="mask-2" fill="white">
                <use xlink:href="#path-1"></use>
            </mask>
            <g id="Clip-2"></g>
            <path d="M64.967,0 C29.087,0 0,29.102 0,65 C0,97.96 24.521,125.187 56.306,129.424 L56.306,116.326 C56.306,112.633 53.977,109.313 50.478,108.139 C32.139,101.976 19.02,84.438 19.503,63.904 C20.091,38.905 40.445,19.25 65.436,19.502 C90.337,19.754 110.445,40.028 110.445,65 C110.445,65.569 110.431,66.136 110.41,66.699 C110.405,66.825 110.401,66.952 110.396,67.079 C110.372,67.603 110.34,68.125 110.299,68.645 C110.286,68.81 110.27,68.975 110.255,69.139 C110.223,69.502 110.186,69.861 110.145,70.221 C110.099,70.63 110.046,71.035 109.989,71.44 C109.964,71.624 109.939,71.809 109.911,71.992 C104.343,108.688 56.572,129.313 56.311,129.425 C59.143,129.802 62.033,130 64.967,130 C100.848,130 129.935,100.899 129.935,65 C129.935,29.102 100.848,0 64.967,0" id="Fill-1" fill="#42BDE1" mask="url(#mask-2)"></path>
        </g>
        <g id="Group-6">
            <mask id="mask-4" fill="white">
                <use xlink:href="#path-3"></use>
            </mask>
            <g id="Clip-5"></g>
            <polygon id="Fill-4" fill="#42BDE1" mask="url(#mask-4)" points="0.06 130 130.02 130 130.02 0.04 0.06 0.04"></polygon>
        </g>
    </g>
</svg>
