<svg width="846" height="586" viewBox="0 0 846 586" fill="none" xmlns="http://www.w3.org/2000/svg">
<rect x="3.63995" y="2.15722" width="24.0209" height="24.3184" transform="matrix(0.968141 -0.250405 0.245177 0.969478 728.363 9.4217)" stroke="#9782EA" stroke-width="6"/>
<path d="M586.928 571.24L596.648 576.851C596.648 576.851 596.648 576.851 596.648 576.852C597.23 577.186 597.664 577.534 597.922 577.904C598.184 578.268 598.309 578.704 598.309 579.199C598.309 579.771 598.163 580.259 597.849 580.641C597.53 581.029 597.101 581.222 596.586 581.222C596.366 581.222 596.133 581.178 595.887 581.096L595.883 581.095C595.648 581.013 595.365 580.88 595.039 580.701L595.037 580.7L582.816 573.854L582.809 573.849L582.809 573.849C582.759 573.819 582.671 573.773 582.538 573.711L582.529 573.707L582.521 573.703C581.391 573.067 580.75 572.277 580.75 571.316C580.75 570.343 581.415 569.538 582.584 568.881L582.694 568.797L582.708 568.787L582.722 568.778L595.036 561.8L595.039 561.798L595.039 561.798C595.449 561.574 595.77 561.42 595.991 561.348C596.202 561.268 596.402 561.221 596.586 561.221C597.101 561.221 597.53 561.414 597.849 561.802C598.163 562.184 598.309 562.672 598.309 563.244C598.309 563.743 598.177 564.19 597.907 564.575L586.928 571.24ZM586.928 571.24L596.649 565.629L596.65 565.628C597.222 565.293 597.65 564.945 597.907 564.575L586.928 571.24ZM603.11 584.979L603.108 584.977C602.697 584.563 602.492 584.046 602.492 583.443C602.492 583.031 602.646 582.429 602.926 581.66L602.93 581.65L602.93 581.65L602.96 581.578L612.031 557.95C612.031 557.95 612.031 557.949 612.031 557.949C612.321 557.18 612.596 556.618 612.862 556.295C613.139 555.959 613.485 555.77 613.893 555.77C614.432 555.77 614.911 555.984 615.324 556.388C615.746 556.802 615.957 557.32 615.957 557.925C615.957 558.174 615.923 558.433 615.857 558.702C615.791 558.969 615.668 559.332 615.491 559.787L603.11 584.979ZM603.11 584.979C603.524 585.385 604.009 585.598 604.557 585.598C604.965 585.598 605.311 585.409 605.587 585.073C605.853 584.75 606.123 584.201 606.403 583.456C606.404 583.456 606.404 583.456 606.404 583.456L615.491 559.788L603.11 584.979ZM631.103 571.24L621.367 565.629L621.364 565.627L621.364 565.627C620.802 565.292 620.377 564.944 620.111 564.579L620.105 564.571L620.106 564.571C619.848 564.186 619.722 563.74 619.722 563.244C619.722 562.674 619.862 562.188 620.164 561.806C620.472 561.416 620.892 561.221 621.399 561.221C621.601 561.221 621.816 561.266 622.041 561.348C622.278 561.431 622.597 561.583 622.992 561.798L622.996 561.8L622.996 561.8L635.278 568.779L635.293 568.787L635.306 568.797L635.416 568.881C636.585 569.538 637.25 570.343 637.25 571.316C637.25 572.287 636.608 573.074 635.475 573.696C635.378 573.766 635.286 573.824 635.202 573.861L622.949 580.699C622.949 580.699 622.948 580.7 622.948 580.7C622.631 580.88 622.347 581.013 622.1 581.096M631.103 571.24L622.098 581.096C622.098 581.096 622.099 581.096 622.1 581.096M631.103 571.24L621.367 576.851M631.103 571.24L621.367 576.851M622.1 581.096C621.861 581.179 621.627 581.222 621.399 581.222C620.896 581.222 620.476 581.036 620.167 580.66L620.164 580.656L620.164 580.656C619.861 580.273 619.722 579.779 619.722 579.199C619.722 578.706 619.841 578.27 620.092 577.907L620.092 577.906C620.35 577.535 620.785 577.186 621.367 576.851M622.1 581.096L621.367 576.851" fill="#FFE974" stroke="#FFE974" stroke-width="0.5"/>
<path d="M644.722 181.448L622.987 175.279L639.137 159.328L644.722 181.448Z" stroke="#EBA471" stroke-width="6"/>
<path d="M787.789 545.655L793.889 523.674L809.662 540.007L787.789 545.655Z" stroke="#719AEB" stroke-width="6"/>
<path d="M614.235 466.303L608.892 444.121L630.559 450.532L614.235 466.303Z" stroke="#EB7187" stroke-width="6"/>
<path d="M532 352.748C532 357.546 528.163 361.378 523.5 361.378C518.837 361.378 515 357.546 515 352.748C515 347.95 518.837 344.118 523.5 344.118C528.163 344.118 532 347.95 532 352.748Z" stroke="#EB7187" stroke-width="6"/>
<path d="M728 347.186C728 351.984 724.163 355.816 719.5 355.816C714.837 355.816 711 351.984 711 347.186C711 342.388 714.837 338.556 719.5 338.556C724.163 338.556 728 342.388 728 347.186Z" stroke="#EBA471" stroke-width="6"/>
<path d="M824 122.17C824 113.793 817.284 107.001 809 107.001C800.716 107.001 794 113.793 794 122.17" stroke="#719AEB" stroke-width="6"/>
<path d="M806 405.336L794 417.471" stroke="#9782EA" stroke-width="6" stroke-linecap="round" stroke-linejoin="round"/>
<path d="M794 405.336L806 417.471" stroke="#9782EA" stroke-width="6" stroke-linecap="round" stroke-linejoin="round"/>
<path d="M529 236.968L529 254.131" stroke="#9782EA" stroke-width="6" stroke-linecap="round" stroke-linejoin="round"/>
<path d="M520.515 245.55L537.485 245.55" stroke="#9782EA" stroke-width="6" stroke-linecap="round" stroke-linejoin="round"/>
<path d="M491.45 53.2338H662.409" stroke="#9682EA" stroke-width="4" stroke-linecap="round" stroke-linejoin="round"/>
<path d="M491.401 66.1108H601.936" stroke="#9682EA" stroke-width="4" stroke-linecap="round" stroke-linejoin="round"/>
<rect x="457" y="49.757" width="20.2083" height="20.4843" rx="10.1041" stroke="#9682EA" stroke-width="4" stroke-linecap="round" stroke-linejoin="round"/>
<rect x="3" y="-3" width="27.7365" height="28.0726" rx="13.8682" transform="matrix(1 0 0 -1 727.688 180.203)" stroke="#FFE974" stroke-width="6"/>
</svg>
